<?xml version="1.0" encoding="UTF-8"?>
<svg version="1.1" xmlns="http://www.w3.org/2000/svg" width="32" height="32">
<path d="M0 0 C10.56 0 21.12 0 32 0 C32 10.56 32 21.12 32 32 C21.44 32 10.88 32 0 32 C0 21.44 0 10.88 0 0 Z " fill="#E5E7FD" transform="translate(0,0)"/>
<path d="M0 0 C6.875 0.875 6.875 0.875 8 2 C8.04080783 3.99958364 8.04254356 6.00045254 8 8 C6.68 8 5.36 8 4 8 C3.80598367 9.81181405 3.61995625 11.62448532 3.4375 13.4375 C3.33308594 14.44683594 3.22867187 15.45617187 3.12109375 16.49609375 C3.08113281 17.32238281 3.04117187 18.14867188 3 19 C3.33 19.33 3.66 19.66 4 20 C4.99 18.68 5.98 17.36 7 16 C8.313702 16.6433848 9.62592898 17.28978215 10.9375 17.9375 C11.66839844 18.29714844 12.39929688 18.65679688 13.15234375 19.02734375 C15 20 15 20 16 21 C16 24.3 16 27.6 16 31 C6.1 31 -3.8 31 -14 31 C-12 21 -12 21 -9 18 C-6.29120665 16.64560332 -3.99066732 16.93498549 -1 17 C-1.17917969 16.443125 -1.35835937 15.88625 -1.54296875 15.3125 C-3.27540678 9.09672235 -2.75110546 5.81964617 0 0 Z " fill="#D28071" transform="translate(16,1)"/>
<path d="M0 0 C8.58 0 17.16 0 26 0 C26 7.26 26 14.52 26 22 C21.545 20.02 21.545 20.02 17 18 C16.01 19.32 15.02 20.64 14 22 C13.01 21.67 12.02 21.34 11 21 C11.74250597 16.91621717 12.82923301 12.98060777 14 9 C15.32 9 16.64 9 18 9 C17.67 7.02 17.34 5.04 17 3 C14.69 2.34 12.38 1.68 10 1 C9.87625 1.5775 9.7525 2.155 9.625 2.75 C8.99351176 5.02335767 8.11141809 6.9253529 7 9 C7 7.35 7 5.7 7 4 C5.68 4.33 4.36 4.66 3 5 C3 4.34 3 3.68 3 3 C2.01 3 1.02 3 0 3 C0 2.01 0 1.02 0 0 Z " fill="#D4C0D2" transform="translate(6,0)"/>
<path d="M0 0 C1.48039971 0.64300189 2.95928782 1.28948499 4.4375 1.9375 C5.26121094 2.29714844 6.08492187 2.65679688 6.93359375 3.02734375 C9 4 9 4 10 5 C10.14257189 8.33618231 10.04228157 11.65975606 10 15 C5.38 15 0.76 15 -4 15 C-3.43179252 9.54520815 -2.05362055 5.08940744 0 0 Z " fill="#281B07" transform="translate(22,17)"/>
<path d="M0 0 C2.60018816 3.90028225 2.15085514 7.47434569 2 12 C-1.9813783 13.3271261 -5.85045227 13.06915913 -10 13 C-9.74379316 11.3934324 -9.46944129 9.7897517 -9.1875 8.1875 C-9.03667969 7.29417969 -8.88585937 6.40085937 -8.73046875 5.48046875 C-7.26613799 0.50800867 -4.97871669 -0.40367973 0 0 Z " fill="#33250A" transform="translate(12,19)"/>
<path d="M0 0 C8.58 0 17.16 0 26 0 C26 5.28 26 10.56 26 16 C25.34 16 24.68 16 24 16 C23.34 12.37 22.68 8.74 22 5 C21.34 5 20.68 5 20 5 C20 4.34 20 3.68 20 3 C16.7 2.34 13.4 1.68 10 1 C9.67 2.32 9.34 3.64 9 5 C8.36345658 6.3479743 7.70394612 7.68596724 7 9 C7 7.35 7 5.7 7 4 C5.68 4.33 4.36 4.66 3 5 C3 4.34 3 3.68 3 3 C2.01 3 1.02 3 0 3 C0 2.01 0 1.02 0 0 Z " fill="#CBC3DF" transform="translate(6,0)"/>
<path d="M0 0 C1.98 0.66 3.96 1.32 6 2 C6 3.98 6 5.96 6 8 C2.7 8.66 -0.6 9.32 -4 10 C-4.66 13.63 -5.32 17.26 -6 21 C-6.99 21.33 -7.98 21.66 -9 22 C-9 17.05 -9 12.1 -9 7 C-8.34 7 -7.68 7 -7 7 C-7 7.66 -7 8.32 -7 9 C-6.01 9 -5.02 9 -4 9 C-4 8.01 -4 7.02 -4 6 C-3.34 6 -2.68 6 -2 6 C-2 5.01 -2 4.02 -2 3 C-1.34 3 -0.68 3 0 3 C0 2.01 0 1.02 0 0 Z " fill="#D4C9DF" transform="translate(9,10)"/>
<path d="M0 0 C0.99 0 1.98 0 3 0 C3 0.66 3 1.32 3 2 C4.32 1.67 5.64 1.34 7 1 C7 3.64 7 6.28 7 9 C6.01 8.67 5.02 8.34 4 8 C3.67 8.66 3.34 9.32 3 10 C2.34 10 1.68 10 1 10 C1 10.99 1 11.98 1 13 C0.34 13 -0.32 13 -1 13 C-1 13.99 -1 14.98 -1 16 C-1.99 16 -2.98 16 -4 16 C-4 15.34 -4 14.68 -4 14 C-4.66 14 -5.32 14 -6 14 C-5.67 13.01 -5.34 12.02 -5 11 C-5 11.66 -5 12.32 -5 13 C-3.35 12.67 -1.7 12.34 0 12 C-0.2784375 10.4221875 -0.2784375 10.4221875 -0.5625 8.8125 C-0.95079331 5.42880118 -0.88247485 3.23574112 0 0 Z " fill="#D9D4F6" transform="translate(6,3)"/>
<path d="M0 0 C2.31 0 4.62 0 7 0 C7.33 0.99 7.66 1.98 8 3 C8.99 3.33 9.98 3.66 11 4 C10.34 7.3 9.68 10.6 9 14 C6.36 14 3.72 14 1 14 C2.32 13.67 3.64 13.34 5 13 C4.74500159 11.20601116 4.47046186 9.41479125 4.1875 7.625 C3.96126953 6.12839844 3.96126953 6.12839844 3.73046875 4.6015625 C3.21227702 1.6712636 3.21227702 1.6712636 0 0 Z " fill="#957B6E" transform="translate(9,18)"/>
<path d="M0 0 C0.66 0 1.32 0 2 0 C2 0.66 2 1.32 2 2 C2.99 1.67 3.98 1.34 5 1 C6.3271261 4.9813783 6.06915913 8.85045227 6 13 C6.66 13 7.32 13 8 13 C8 14.98 8 16.96 8 19 C5.69 18.01 3.38 17.02 1 16 C1.66 15.67 2.32 15.34 3 15 C2.01 13.02 1.02 11.04 0 9 C0.66 8.34 1.32 7.68 2 7 C2.6425235 4.93125966 2.6425235 4.93125966 3 3 C2.01 2.67 1.02 2.34 0 2 C0 1.34 0 0.68 0 0 Z " fill="#BBB0C9" transform="translate(24,3)"/>
<path d="M0 0 C4.875 1.875 4.875 1.875 6 3 C6.04063832 4.66617115 6.042721 6.33388095 6 8 C5.67 7.34 5.34 6.68 5 6 C4.34 6 3.68 6 3 6 C3 6.99 3 7.98 3 9 C1.68 9 0.36 9 -1 9 C-1.625 5.625 -1.625 5.625 -2 2 C-1.34 1.34 -0.68 0.68 0 0 Z " fill="#50362D" transform="translate(26,19)"/>
<path d="M0 0 C4.62 0 9.24 0 14 0 C12.68 0.33 11.36 0.66 10 1 C9.87625 1.5775 9.7525 2.155 9.625 2.75 C8.99351176 5.02335767 8.11141809 6.9253529 7 9 C7 7.35 7 5.7 7 4 C5.68 4.33 4.36 4.66 3 5 C3 4.34 3 3.68 3 3 C2.01 3 1.02 3 0 3 C0 2.01 0 1.02 0 0 Z " fill="#D3C4D7" transform="translate(6,0)"/>
<path d="M0 0 C1.32 0 2.64 0 4 0 C3.690625 1.051875 3.38125 2.10375 3.0625 3.1875 C2.24314906 6.12752396 1.54516069 9.00161623 1 12 C-0.32 12.33 -1.64 12.66 -3 13 C-2.01 8.71 -1.02 4.42 0 0 Z " fill="#D3989C" transform="translate(20,9)"/>
<path d="M0 0 C1.32 0.66 2.64 1.32 4 2 C3.67 4.31 3.34 6.62 3 9 C2.38125 9.144375 1.7625 9.28875 1.125 9.4375 C-1.03258322 9.93152225 -1.03258322 9.93152225 -3 11 C-2.69078116 9.54096742 -2.37751201 8.08279278 -2.0625 6.625 C-1.88847656 5.81289063 -1.71445312 5.00078125 -1.53515625 4.1640625 C-1 2 -1 2 0 0 Z " fill="#412E23" transform="translate(22,17)"/>
<path d="M0 0 C1.60031344 3.20062687 0.03173691 5.72271806 -1 9 C-3.64 9 -6.28 9 -9 9 C-7.68 8.67 -6.36 8.34 -5 8 C-4.67 6.35 -4.34 4.7 -4 3 C-3.01 3 -2.02 3 -1 3 C-0.67 2.01 -0.34 1.02 0 0 Z " fill="#7B6050" transform="translate(19,23)"/>
<path d="M0 0 C0 1.98 0 3.96 0 6 C-1.65 6.33 -3.3 6.66 -5 7 C-5.33 5.02 -5.66 3.04 -6 1 C-3 0 -3 0 0 0 Z " fill="#F1F0FD" transform="translate(6,9)"/>
<path d="M0 0 C6.875 0.875 6.875 0.875 8 2 C8.04063832 3.66617115 8.042721 5.33388095 8 7 C7.67 6.01 7.34 5.02 7 4 C4.69 4 2.38 4 0 4 C0 2.68 0 1.36 0 0 Z " fill="#974E25" transform="translate(16,1)"/>
<path d="M0 0 C0.66 0 1.32 0 2 0 C2 2.64 2 5.28 2 8 C0.68 7.34 -0.64 6.68 -2 6 C-1.125 1.125 -1.125 1.125 0 0 Z " fill="#EAE9F9" transform="translate(11,4)"/>
<path d="M0 0 C0.66 0.33 1.32 0.66 2 1 C2 2.98 2 4.96 2 7 C0.35 7 -1.3 7 -3 7 C-2.34 5.35 -1.68 3.7 -1 2 C-1.66 1.67 -2.32 1.34 -3 1 C-2.01 0.67 -1.02 0.34 0 0 Z " fill="#CDB4C0" transform="translate(13,11)"/>
<path d="M0 0 C0.66 0 1.32 0 2 0 C2.33 2.31 2.66 4.62 3 7 C2.01 7 1.02 7 0 7 C0 6.34 0 5.68 0 5 C-0.99 4.67 -1.98 4.34 -3 4 C-2.01 3.67 -1.02 3.34 0 3 C0 2.01 0 1.02 0 0 Z " fill="#3B291B" transform="translate(29,25)"/>
<path d="M0 0 C-0.57319825 3.32454983 -1.54327875 4.73981645 -4 7 C-4.66 7.99 -5.32 8.98 -6 10 C-5.38909774 3.52443609 -5.38909774 3.52443609 -3.5625 1.0625 C-2 0 -2 0 0 0 Z " fill="#664134" transform="translate(9,19)"/>
<path d="M0 0 C0.33 1.32 0.66 2.64 1 4 C1.66 4 2.32 4 3 4 C3 5.98 3 7.96 3 10 C1.68 9.01 0.36 8.02 -1 7 C-0.67 4.69 -0.34 2.38 0 0 Z " fill="#C3B6CD" transform="translate(29,12)"/>
<path d="M0 0 C1.32 0.33 2.64 0.66 4 1 C4 2.98 4 4.96 4 7 C3.01 7 2.02 7 1 7 C0.67 4.69 0.34 2.38 0 0 Z " fill="#BA7970" transform="translate(24,21)"/>
<path d="M0 0 C0.99 0.33 1.98 0.66 3 1 C3.33 2.98 3.66 4.96 4 7 C3.67 6.34 3.34 5.68 3 5 C1.68 5 0.36 5 -1 5 C-0.67 3.35 -0.34 1.7 0 0 Z " fill="#B8694A" transform="translate(15,4)"/>
<path d="M0 0 C1.98 0.99 1.98 0.99 4 2 C3.67 3.65 3.34 5.3 3 7 C2.34 7 1.68 7 1 7 C0.67 4.69 0.34 2.38 0 0 Z " fill="#C16F60" transform="translate(15,14)"/>
<path d="M0 0 C0.99 0.33 1.98 0.66 3 1 C2.67 2.65 2.34 4.3 2 6 C1.01 6 0.02 6 -1 6 C-0.67 4.02 -0.34 2.04 0 0 Z " fill="#DBD2E7" transform="translate(24,5)"/>
</svg>
